<?xml version="1.0" ?><svg xmlns="http://www.w3.org/2000/svg" width="24" height="24" viewBox="0 0 24 24" fill="none"><path fill-rule="evenodd" clip-rule="evenodd" d="M12 9C10.3431 9 9 10.3431 9 12C9 13.6569 10.3431 15 12 15C13.6569 15 15 13.6569 15 12C15 10.3431 13.6569 9 12 9ZM11 12C11 11.4477 11.4477 11 12 11C12.5523 11 13 11.4477 13 12C13 12.5523 12.5523 13 12 13C11.4477 13 11 12.5523 11 12Z" fill="#0D4DDF"/><path fill-rule="evenodd" clip-rule="evenodd" d="M12 2C12.5523 2 13 2.44772 13 3V4.06189C16.535 4.5027 19.3537 7.24983 19.9029 10.75H21C21.5523 10.75 22 11.1977 22 11.75C22 12.3023 21.5523 12.75 21 12.75H19.9653C19.6179 16.486 16.7017 19.4765 13 19.9381V21C13 21.5523 12.5523 22 12 22C11.4477 22 11 21.5523 11 21V19.9381C7.29834 19.4765 4.38205 16.486 4.03469 12.75H3C2.44772 12.75 2 12.3023 2 11.75C2 11.1977 2.44772 10.75 3 10.75H4.09708C4.64629 7.24983 7.46502 4.5027 11 4.06189V3C11 2.44772 11.4477 2 12 2ZM6.04642 12.75H6.75C7.30228 12.75 7.75 12.3023 7.75 11.75C7.75 11.1977 7.30228 10.75 6.75 10.75H6.13039C6.63756 8.35674 8.57143 6.49039 11 6.08296V7C11 7.55228 11.4477 8 12 8C12.5523 8 13 7.55228 13 7V6.08296C15.4286 6.49039 17.3624 8.35674 17.8696 10.75H17.25C16.6977 10.75 16.25 11.1977 16.25 11.75C16.25 12.3023 16.6977 12.75 17.25 12.75H17.9536C17.6256 15.3802 15.5953 17.4816 13 17.917V17C13 16.4477 12.5523 16 12 16C11.4477 16 11 16.4477 11 17V17.917C8.40472 17.4816 6.3744 15.3802 6.04642 12.75Z" fill="#0D4DDF"/></svg>